<mxfile host="app.diagrams.net" modified="2024-01-10T17:49:34.266Z" agent="Mozilla/5.0 (Windows NT 10.0; Win64; x64) AppleWebKit/537.36 (KHTML, like Gecko) Chrome/120.0.0.0 Safari/537.36" etag="9GwTvk4ldY95P_KBwfWM" version="22.1.18" type="device">
  <diagram id="YrfzH3xwVrYN7FTBeiER" name="Page-1">
    <mxGraphModel dx="882" dy="578" grid="1" gridSize="10" guides="1" tooltips="1" connect="1" arrows="1" fold="1" page="1" pageScale="1" pageWidth="850" pageHeight="1100" math="0" shadow="0">
      <root>
        <mxCell id="0" />
        <mxCell id="1" parent="0" />
        <mxCell id="o8nIqEfAkbpCNropF-zf-21" style="edgeStyle=orthogonalEdgeStyle;rounded=0;orthogonalLoop=1;jettySize=auto;html=1;exitX=1;exitY=0.5;exitDx=0;exitDy=0;entryX=0;entryY=0.5;entryDx=0;entryDy=0;" edge="1" parent="1" source="o8nIqEfAkbpCNropF-zf-1" target="o8nIqEfAkbpCNropF-zf-13">
          <mxGeometry relative="1" as="geometry" />
        </mxCell>
        <mxCell id="o8nIqEfAkbpCNropF-zf-1" value="" style="swimlane;startSize=0;" vertex="1" parent="1">
          <mxGeometry x="40" y="40" width="400" height="280" as="geometry" />
        </mxCell>
        <mxCell id="o8nIqEfAkbpCNropF-zf-2" value="Task queue" style="rounded=1;whiteSpace=wrap;html=1;" vertex="1" parent="o8nIqEfAkbpCNropF-zf-1">
          <mxGeometry x="40" y="40" width="80" height="40" as="geometry" />
        </mxCell>
        <mxCell id="o8nIqEfAkbpCNropF-zf-6" value="" style="edgeStyle=orthogonalEdgeStyle;rounded=0;orthogonalLoop=1;jettySize=auto;html=1;" edge="1" parent="o8nIqEfAkbpCNropF-zf-1" source="o8nIqEfAkbpCNropF-zf-3" target="o8nIqEfAkbpCNropF-zf-4">
          <mxGeometry relative="1" as="geometry" />
        </mxCell>
        <mxCell id="o8nIqEfAkbpCNropF-zf-3" value="Worker queue" style="rounded=1;whiteSpace=wrap;html=1;" vertex="1" parent="o8nIqEfAkbpCNropF-zf-1">
          <mxGeometry x="40" y="120" width="80" height="40" as="geometry" />
        </mxCell>
        <mxCell id="o8nIqEfAkbpCNropF-zf-4" value="Running queue" style="rounded=1;whiteSpace=wrap;html=1;" vertex="1" parent="o8nIqEfAkbpCNropF-zf-1">
          <mxGeometry x="40" y="200" width="80" height="40" as="geometry" />
        </mxCell>
        <mxCell id="o8nIqEfAkbpCNropF-zf-7" style="edgeStyle=orthogonalEdgeStyle;rounded=0;orthogonalLoop=1;jettySize=auto;html=1;exitX=0;exitY=0.5;exitDx=0;exitDy=0;" edge="1" parent="o8nIqEfAkbpCNropF-zf-1" source="o8nIqEfAkbpCNropF-zf-5" target="o8nIqEfAkbpCNropF-zf-3">
          <mxGeometry relative="1" as="geometry" />
        </mxCell>
        <mxCell id="o8nIqEfAkbpCNropF-zf-8" style="edgeStyle=orthogonalEdgeStyle;rounded=0;orthogonalLoop=1;jettySize=auto;html=1;exitX=0.5;exitY=0;exitDx=0;exitDy=0;entryX=1;entryY=0.5;entryDx=0;entryDy=0;" edge="1" parent="o8nIqEfAkbpCNropF-zf-1" source="o8nIqEfAkbpCNropF-zf-5" target="o8nIqEfAkbpCNropF-zf-2">
          <mxGeometry relative="1" as="geometry" />
        </mxCell>
        <mxCell id="o8nIqEfAkbpCNropF-zf-9" style="edgeStyle=orthogonalEdgeStyle;rounded=0;orthogonalLoop=1;jettySize=auto;html=1;exitX=0.5;exitY=1;exitDx=0;exitDy=0;entryX=1;entryY=0.5;entryDx=0;entryDy=0;" edge="1" parent="o8nIqEfAkbpCNropF-zf-1" source="o8nIqEfAkbpCNropF-zf-5" target="o8nIqEfAkbpCNropF-zf-4">
          <mxGeometry relative="1" as="geometry" />
        </mxCell>
        <mxCell id="o8nIqEfAkbpCNropF-zf-5" value="Task scheduler" style="rounded=1;whiteSpace=wrap;html=1;" vertex="1" parent="o8nIqEfAkbpCNropF-zf-1">
          <mxGeometry x="280" y="120" width="80" height="40" as="geometry" />
        </mxCell>
        <mxCell id="o8nIqEfAkbpCNropF-zf-10" value="Get the highest priority task" style="text;html=1;strokeColor=none;fillColor=none;align=center;verticalAlign=middle;whiteSpace=wrap;rounded=0;" vertex="1" parent="o8nIqEfAkbpCNropF-zf-1">
          <mxGeometry x="120" y="30" width="160" height="30" as="geometry" />
        </mxCell>
        <mxCell id="o8nIqEfAkbpCNropF-zf-11" value="Get the optimal worker" style="text;html=1;strokeColor=none;fillColor=none;align=center;verticalAlign=middle;whiteSpace=wrap;rounded=0;" vertex="1" parent="o8nIqEfAkbpCNropF-zf-1">
          <mxGeometry x="120" y="110" width="160" height="30" as="geometry" />
        </mxCell>
        <mxCell id="o8nIqEfAkbpCNropF-zf-12" value="Put task/worker info in queue" style="text;html=1;strokeColor=none;fillColor=none;align=center;verticalAlign=middle;whiteSpace=wrap;rounded=0;" vertex="1" parent="o8nIqEfAkbpCNropF-zf-1">
          <mxGeometry x="120" y="190" width="160" height="30" as="geometry" />
        </mxCell>
        <mxCell id="o8nIqEfAkbpCNropF-zf-24" value="Resource manager" style="text;html=1;strokeColor=none;fillColor=none;align=center;verticalAlign=middle;whiteSpace=wrap;rounded=0;" vertex="1" parent="o8nIqEfAkbpCNropF-zf-1">
          <mxGeometry x="280" width="120" height="30" as="geometry" />
        </mxCell>
        <mxCell id="o8nIqEfAkbpCNropF-zf-13" value="" style="swimlane;startSize=0;" vertex="1" parent="1">
          <mxGeometry x="520" y="80" width="280" height="200" as="geometry" />
        </mxCell>
        <mxCell id="o8nIqEfAkbpCNropF-zf-14" value="Watermark" style="rounded=1;whiteSpace=wrap;html=1;" vertex="1" parent="o8nIqEfAkbpCNropF-zf-13">
          <mxGeometry x="40" y="40" width="80" height="40" as="geometry" />
        </mxCell>
        <mxCell id="o8nIqEfAkbpCNropF-zf-15" value="Encoder" style="rounded=1;whiteSpace=wrap;html=1;" vertex="1" parent="o8nIqEfAkbpCNropF-zf-13">
          <mxGeometry x="160" y="40" width="80" height="40" as="geometry" />
        </mxCell>
        <mxCell id="o8nIqEfAkbpCNropF-zf-17" value="Thumbnail" style="rounded=1;whiteSpace=wrap;html=1;" vertex="1" parent="o8nIqEfAkbpCNropF-zf-13">
          <mxGeometry x="40" y="120" width="80" height="40" as="geometry" />
        </mxCell>
        <mxCell id="o8nIqEfAkbpCNropF-zf-18" value="Merger" style="rounded=1;whiteSpace=wrap;html=1;" vertex="1" parent="o8nIqEfAkbpCNropF-zf-13">
          <mxGeometry x="160" y="120" width="80" height="40" as="geometry" />
        </mxCell>
        <mxCell id="o8nIqEfAkbpCNropF-zf-27" value="Task workers" style="text;html=1;strokeColor=none;fillColor=none;align=center;verticalAlign=middle;whiteSpace=wrap;rounded=0;" vertex="1" parent="o8nIqEfAkbpCNropF-zf-13">
          <mxGeometry x="160" width="120" height="30" as="geometry" />
        </mxCell>
        <mxCell id="o8nIqEfAkbpCNropF-zf-23" value="Run task" style="text;html=1;strokeColor=none;fillColor=none;align=center;verticalAlign=middle;whiteSpace=wrap;rounded=0;" vertex="1" parent="1">
          <mxGeometry x="440" y="150" width="80" height="30" as="geometry" />
        </mxCell>
      </root>
    </mxGraphModel>
  </diagram>
</mxfile>
